<svg id="oJrohV" xmlns="http://www.w3.org/2000/svg" width="25.499" height="25.507" viewBox="0 0 25.499 25.507">
  <g id="Group_916" data-name="Group 916">
    <path id="Path_1157" data-name="Path 1157" d="M126.317,873.586a9.2,9.2,0,1,1,1.414-1.4c.652.632,1.319,1.263,1.97,1.911q3.326,3.313,6.643,6.635c.056.056.112.112.166.169a1.015,1.015,0,1,1-1.433,1.428c-.622-.6-1.23-1.224-1.844-1.838l-6.637-6.641C126.514,873.764,126.425,873.686,126.317,873.586Zm1.411-7.271a7.173,7.173,0,1,0-7.088,7.232A7.171,7.171,0,0,0,127.729,866.316Z" transform="translate(-111.366 -857.179)" fill="#c3c3c3"/>
  </g>
</svg>
